<?xml version="1.0" encoding="utf-8"?>
<!-- Generator: Adobe Illustrator 25.0.0, SVG Export Plug-In . SVG Version: 6.00 Build 0)  -->
<svg version="1.1" id="Calque_1" xmlns="http://www.w3.org/2000/svg" xmlns:xlink="http://www.w3.org/1999/xlink" x="0px" y="0px"
	 viewBox="0 0 151.5 191.7" style="enable-background:new 0 0 151.5 191.7;" xml:space="preserve">
<style type="text/css">
	.st0{fill:#FAE6B1;}
	.st1{fill:none;}
	.st2{fill:#1D2C49;}
	.st3{fill:#FB5724;}
	.st4{fill:#FB5724;stroke:#FB5724;stroke-width:3;stroke-miterlimit:10;}
</style>
<path class="st0" d="M1346.1-60.2"/>
<path class="st0" d="M434.1,1023.8"/>
<path class="st1" d="M-442.9-211.2c15.3-0.7,30.7-1.3,46-2c14.7-0.7,29.3-1.3,44-2"/>
<g>
	<rect x="0.4" y="108.9" class="st2" width="38.1" height="82.8"/>
</g>
<g>
	<rect x="75.3" y="75.3" class="st2" width="38.1" height="116.3"/>
</g>
<g>
	<rect x="113.4" y="59.6" class="st2" width="38.1" height="132.1"/>
</g>
<g>
	<rect x="37.2" y="91.6" class="st2" width="38.1" height="100.1"/>
</g>
<g>
	<g>
		<path class="st3" d="M13,161.2c-2,0-3.7-0.4-5.1-1.2c-1.4-0.8-2.4-1.9-3.1-3.2s-1-2.9-1-4.6c0-2,0.4-3.8,1.2-5.4s2-2.8,3.4-3.7
			c1.5-0.9,3.2-1.4,5.2-1.4c1.7,0,3.2,0.3,4.4,1c1.3,0.7,2.3,1.6,2.9,2.9c0.7,1.2,1,2.6,1,4.1c0,1.1-0.2,2.3-0.7,3.4
			c-0.5,1.1-1.1,2-2,2.7s-1.8,1-2.9,1c-0.5,0-0.9-0.1-1.3-0.3c-0.3-0.2-0.6-0.5-0.8-0.9c-0.8,0.9-1.7,1.3-2.6,1.3
			c-1.1,0-1.8-0.4-2.4-1.1c-0.5-0.7-0.8-1.6-0.8-2.8c0-1.2,0.2-2.3,0.6-3.4c0.4-1.1,0.9-1.8,1.6-2.5c0.7-0.6,1.4-0.9,2.1-0.9
			c0.5,0,1,0.1,1.5,0.4s0.9,0.6,1.2,1.1l0.2-1.1h2l-1.5,7.7l0,0.3c0,0.4,0.2,0.6,0.5,0.6c0.6,0,1.1-0.2,1.6-0.7
			c0.5-0.5,0.9-1.2,1.2-2c0.3-0.8,0.5-1.7,0.5-2.6c0-1.3-0.3-2.4-0.8-3.4s-1.3-1.7-2.3-2.2s-2.1-0.8-3.4-0.8c-1.4,0-2.7,0.4-3.9,1.1
			c-1.2,0.7-2.1,1.8-2.8,3.1c-0.7,1.4-1,2.9-1,4.5c0,1.5,0.3,2.8,0.9,3.9s1.5,2,2.6,2.6c1.1,0.6,2.4,0.9,3.8,0.9
			c2.1,0,4-0.6,5.7-1.8l0.9,1.4c-0.9,0.7-1.9,1.2-3,1.6S14.3,161.2,13,161.2z M12.1,155.1c0.7,0,1.2-0.3,1.6-0.9s0.7-1.3,0.9-2.1
			c0.2-0.8,0.3-1.5,0.3-2.2c0-0.6-0.2-1.1-0.5-1.5c-0.3-0.4-0.7-0.6-1.2-0.6s-0.9,0.2-1.3,0.7c-0.4,0.5-0.7,1.1-1,1.9
			c-0.2,0.8-0.4,1.6-0.4,2.6c0,0.7,0.1,1.1,0.4,1.5C11.2,155,11.6,155.1,12.1,155.1z"/>
	</g>
	<g>
		<path class="st3" d="M56.1,131.8h11.4v4.1h-4v24.8h4v4.1H55.1v-4.1H59v-24.8l-11.4,29.3h-1l-11.3-29.3v24.8h3.6v4.1H27.3v-4.1h4
			v-24.8h-4v-4.1h11.3l8.7,22.6L56.1,131.8z"/>
	</g>
	<g>
		<path class="st3" d="M101.6,131.6h11.5v4.2h-4v24.9h4v4.2h-12.5v-4.2h3.9v-24.9l-11.4,29.4h-1l-11.3-29.4v24.9h3.6v4.2H72.7v-4.2
			h4v-24.9h-4v-4.2h11.4l8.8,22.7L101.6,131.6z"/>
	</g>
	<g>
		<path class="st3" d="M141.7,141.7v-5.5h-14.2v9.9h12.4v4.2h-12.4V161h14.2V155h4.1v10.2h-27.6V161h4.3v-24.9h-4.3v-4.2h27.6v9.7
			L141.7,141.7L141.7,141.7z"/>
	</g>
</g>
<g>
	<path class="st4" d="M146.8,16L7.1,84.1c-1.9,1-4.3,0.2-5.2-1.8l0,0c-1-1.9-0.2-4.3,1.8-5.2L143.4,9c1.9-1,4.3-0.2,5.2,1.8l0,0
		C149.5,12.7,148.8,15.1,146.8,16z"/>
	<path class="st4" d="M142.8,16.1L114,10.5c-2.5-0.5-4.1-2.9-3.6-5.3l0,0c0.5-2.5,2.9-4.1,5.3-3.6l28.8,5.6c2.5,0.5,4.1,2.9,3.6,5.3
		l0,0C147.6,15,145.3,16.6,142.8,16.1z"/>
	<path class="st4" d="M127.4,35.4l12.5-24.2c1.2-2.2,3.9-3.1,6.1-2l0,0c2.2,1.2,3.1,3.9,2,6.1l-12.5,24.2c-1.2,2.2-3.9,3.1-6.1,2
		l0,0C127.1,40.4,126.2,37.7,127.4,35.4z"/>
</g>
</svg>
