<?xml version="1.0" encoding="utf-8"?>
<!-- Generator: Adobe Illustrator 25.0.0, SVG Export Plug-In . SVG Version: 6.00 Build 0)  -->
<svg version="1.1" id="Calque_1" xmlns="http://www.w3.org/2000/svg" xmlns:xlink="http://www.w3.org/1999/xlink" x="0px" y="0px"
	 viewBox="0 0 151.5 191.7" style="enable-background:new 0 0 151.5 191.7;" xml:space="preserve">
<style type="text/css">
	.st0{fill:#FAE6B1;}
	.st1{fill:none;}
	.st2{fill:#1D2C49;}
	.st3{fill:#FB5724;}
	.st4{fill:#FB5724;stroke:#FB5724;stroke-width:3;stroke-miterlimit:10;}
</style>
<path class="st0" d="M1346.1-60.2"/>
<path class="st0" d="M434.1,1023.8"/>
<path class="st1" d="M-442.9-211.2c15.3-0.7,30.7-1.3,46-2c14.7-0.7,29.3-1.3,44-2"/>
<g>
	<g>
		<rect x="0.4" y="108.9" class="st2" width="38.1" height="82.8"/>
	</g>
	<g>
		<rect x="75.3" y="75.3" class="st2" width="38.1" height="116.3"/>
	</g>
	<g>
		<rect x="113.4" y="59.6" class="st2" width="38.1" height="132.1"/>
	</g>
	<g>
		<rect x="37.2" y="91.6" class="st2" width="38.1" height="100.1"/>
	</g>
	<g>
		<g>
			<path class="st3" d="M22.6,156.4c-2.5,0-4.6-0.5-6.3-1.5c-1.7-1-3-2.3-3.9-4c-0.9-1.7-1.3-3.6-1.3-5.7c0-2.5,0.5-4.7,1.5-6.7
				c1-2,2.4-3.5,4.3-4.6c1.8-1.1,4-1.7,6.4-1.7c2.1,0,3.9,0.4,5.5,1.3s2.8,2,3.6,3.6s1.3,3.2,1.3,5.1c0,1.4-0.3,2.8-0.9,4.2
				s-1.4,2.4-2.4,3.3c-1.1,0.9-2.3,1.3-3.7,1.3c-0.6,0-1.2-0.2-1.6-0.4c-0.4-0.3-0.8-0.7-1-1.2c-1,1.1-2.1,1.6-3.3,1.6
				c-1.3,0-2.3-0.5-2.9-1.3c-0.7-0.9-1-2-1-3.5c0-1.5,0.3-2.9,0.8-4.2c0.5-1.3,1.2-2.3,2-3c0.9-0.8,1.7-1.1,2.6-1.1
				c0.7,0,1.3,0.2,1.8,0.5s1.1,0.8,1.5,1.4l0.3-1.4h2.4l-1.8,9.6l-0.1,0.4c0,0.5,0.2,0.7,0.6,0.7c0.7,0,1.4-0.3,2-0.9
				c0.6-0.6,1.2-1.5,1.5-2.5c0.4-1,0.6-2.1,0.6-3.3c0-1.6-0.4-3-1-4.2c-0.7-1.2-1.6-2.1-2.8-2.7c-1.2-0.7-2.6-1-4.3-1
				c-1.8,0-3.4,0.5-4.9,1.4s-2.6,2.2-3.5,3.9s-1.3,3.6-1.3,5.6c0,1.8,0.4,3.5,1.1,4.8c0.8,1.4,1.8,2.4,3.2,3.2
				c1.4,0.8,3,1.1,4.8,1.1c2.6,0,4.9-0.8,7.1-2.3l1.1,1.7c-1.1,0.8-2.3,1.5-3.8,1.9C25.7,156.2,24.2,156.4,22.6,156.4z M21.4,148.9
				c0.8,0,1.5-0.4,2-1.1c0.5-0.8,0.9-1.6,1.2-2.6c0.3-1,0.4-1.9,0.4-2.7c0-0.8-0.2-1.4-0.6-1.8c-0.4-0.5-0.9-0.7-1.5-0.7
				s-1.1,0.3-1.6,0.9c-0.5,0.6-0.9,1.4-1.2,2.3s-0.5,2-0.5,3.2c0,0.8,0.2,1.4,0.5,1.9C20.4,148.7,20.9,148.9,21.4,148.9z"/>
		</g>
		<g>
			<path class="st3" d="M60.4,127.1h10.1v3.6H67v21.8h3.5v3.6H59.6v-3.6H63v-21.8l-10,25.8h-0.9l-9.9-25.8v21.8h3.2v3.6H35.2v-3.6
				h3.6v-21.8h-3.6v-3.6h10l7.7,19.9L60.4,127.1z"/>
		</g>
		<g>
			<path class="st3" d="M100.5,126.9h10.1v3.7h-3.5v21.9h3.5v3.7h-11v-3.7h3.5v-21.9l-10.1,25.9h-0.9l-10-25.9v21.9h3.2v3.7H75.1
				v-3.7h3.6v-21.9h-3.6v-3.7h10l7.7,20L100.5,126.9z"/>
		</g>
		<g>
			<path class="st3" d="M135.8,135.7v-4.9h-12.5v8.7h10.9v3.7h-10.9v9.5h12.5v-5.3h3.6v9h-24.3v-3.7h3.8v-21.9h-3.8v-3.7h24.3v8.5
				L135.8,135.7L135.8,135.7z"/>
		</g>
	</g>
	<g>
		<path class="st4" d="M146.8,16L7.1,84.1c-1.9,1-4.3,0.2-5.2-1.8l0,0c-1-1.9-0.2-4.3,1.8-5.2L143.4,9c1.9-1,4.3-0.2,5.2,1.8l0,0
			C149.5,12.7,148.8,15.1,146.8,16z"/>
		<path class="st4" d="M142.8,16.1L114,10.5c-2.5-0.5-4.1-2.9-3.6-5.3l0,0c0.5-2.5,2.9-4.1,5.3-3.6l28.8,5.6
			c2.5,0.5,4.1,2.9,3.6,5.3l0,0C147.6,15,145.3,16.6,142.8,16.1z"/>
		<path class="st4" d="M127.4,35.4l12.5-24.2c1.2-2.2,3.9-3.1,6.1-2l0,0c2.2,1.2,3.1,3.9,2,6.1l-12.5,24.2c-1.2,2.2-3.9,3.1-6.1,2
			l0,0C127.1,40.4,126.2,37.7,127.4,35.4z"/>
	</g>
</g>
</svg>
