<?xml version="1.0" encoding="utf-8"?>
<!-- Generator: Adobe Illustrator 25.0.0, SVG Export Plug-In . SVG Version: 6.00 Build 0)  -->
<svg version="1.1" id="Calque_1" xmlns="http://www.w3.org/2000/svg" xmlns:xlink="http://www.w3.org/1999/xlink" x="0px" y="0px"
	 viewBox="0 0 151.5 191.7" style="enable-background:new 0 0 151.5 191.7;" xml:space="preserve">
<style type="text/css">
	.st0{fill:#FAE6B1;}
	.st1{fill:none;}
	.st2{fill:#1D2C49;}
	.st3{fill:#FB5724;}
	.st4{fill:#FB5724;stroke:#FB5724;stroke-width:3;stroke-miterlimit:10;}
</style>
<path class="st0" d="M1346.1-60.2"/>
<path class="st0" d="M434.1,1023.8"/>
<path class="st1" d="M-442.9-211.2c15.3-0.7,30.7-1.3,46-2c14.7-0.7,29.3-1.3,44-2"/>
<g>
	<rect x="0.4" y="108.9" class="st2" width="38.1" height="82.8"/>
</g>
<g>
	<rect x="75.3" y="75.3" class="st2" width="38.1" height="116.3"/>
</g>
<g>
	<rect x="113.4" y="59.6" class="st2" width="38.1" height="132.1"/>
</g>
<g>
	<rect x="37.2" y="91.6" class="st2" width="38.1" height="100.1"/>
</g>
<g>
	<g>
		<path class="st3" d="M18.4,155.8c-2.3,0-4.3-0.5-5.9-1.4s-2.8-2.2-3.6-3.7c-0.8-1.5-1.2-3.4-1.2-5.3c0-2.3,0.5-4.4,1.4-6.3
			c0.9-1.9,2.3-3.2,3.9-4.3c1.7-1,3.7-1.6,6-1.6c2,0,3.7,0.3,5.1,1.2c1.5,0.8,2.7,1.9,3.4,3.4c0.8,1.4,1.2,3,1.2,4.8
			c0,1.3-0.2,2.7-0.8,3.9s-1.3,2.3-2.3,3.1s-2.1,1.2-3.4,1.2c-0.6,0-1-0.1-1.5-0.3c-0.3-0.2-0.7-0.6-0.9-1c-0.9,1-2,1.5-3,1.5
			c-1.3,0-2.1-0.5-2.8-1.3c-0.6-0.8-0.9-1.9-0.9-3.2c0-1.4,0.2-2.7,0.7-3.9c0.5-1.3,1-2.1,1.9-2.9c0.8-0.7,1.6-1,2.4-1
			c0.6,0,1.2,0.1,1.7,0.5s1,0.7,1.4,1.3l0.2-1.3h2.3l-1.7,8.9v0.3c0,0.5,0.2,0.7,0.6,0.7c0.7,0,1.3-0.2,1.9-0.8s1-1.4,1.4-2.3
			c0.3-0.9,0.6-2,0.6-3c0-1.5-0.3-2.8-0.9-3.9s-1.5-2-2.7-2.6c-1.2-0.6-2.4-0.9-3.9-0.9c-1.6,0-3.1,0.5-4.5,1.3
			c-1.4,0.8-2.4,2.1-3.2,3.6c-0.8,1.6-1.2,3.4-1.2,5.2c0,1.7,0.3,3.2,1,4.5c0.7,1.3,1.7,2.3,3,3s2.8,1,4.4,1c2.4,0,4.6-0.7,6.6-2.1
			l1,1.6c-1,0.8-2.2,1.4-3.5,1.9C21.3,155.8,20,155.8,18.4,155.8z M17.4,148.8c0.8,0,1.4-0.3,1.9-1c0.5-0.7,0.8-1.5,1-2.4
			c0.2-0.9,0.3-1.7,0.3-2.6c0-0.7-0.2-1.3-0.6-1.7c-0.3-0.5-0.8-0.7-1.4-0.7s-1,0.2-1.5,0.8s-0.8,1.3-1.2,2.2
			c-0.2,0.9-0.5,1.9-0.5,3c0,0.8,0.1,1.3,0.5,1.7C16.4,148.6,16.8,148.8,17.4,148.8z"/>
	</g>
	<g>
		<path class="st3" d="M59.1,126h10.8v3.9h-3.8v23.4h3.8v3.9H58.1v-3.9h3.7v-23.4l-10.8,27.6h-0.9l-10.7-27.6v23.4h3.4v3.9H31.9
			v-3.9h3.8v-23.4h-3.8V126h10.7l8.2,21.3L59.1,126z"/>
	</g>
	<g>
		<path class="st3" d="M102,125.8h10.9v4h-3.8v23.5h3.8v4h-11.8v-4h3.7v-23.5L94,157.5h-0.9l-10.7-27.7v23.5h3.4v4h-11v-4h3.8v-23.5
			h-3.8v-4h10.8l8.3,21.4L102,125.8z"/>
	</g>
	<g>
		<path class="st3" d="M139.9,135.3v-5.2h-13.4v9.3h11.7v4h-11.7v10.1h13.4v-5.7h3.9v9.6h-26v-4h4.1V130h-4.1v-4h26v9.2L139.9,135.3
			L139.9,135.3z"/>
	</g>
</g>
<g>
	<path class="st4" d="M146.8,16L7.1,84.1c-1.9,1-4.3,0.2-5.2-1.8l0,0c-1-1.9-0.2-4.3,1.8-5.2L143.4,9c1.9-1,4.3-0.2,5.2,1.8l0,0
		C149.5,12.7,148.8,15.1,146.8,16z"/>
	<path class="st4" d="M142.8,16.1L114,10.5c-2.5-0.5-4.1-2.9-3.6-5.3l0,0c0.5-2.5,2.9-4.1,5.3-3.6l28.8,5.6c2.5,0.5,4.1,2.9,3.6,5.3
		l0,0C147.6,15,145.3,16.6,142.8,16.1z"/>
	<path class="st4" d="M127.4,35.4l12.5-24.2c1.2-2.2,3.9-3.1,6.1-2l0,0c2.2,1.2,3.1,3.9,2,6.1l-12.5,24.2c-1.2,2.2-3.9,3.1-6.1,2
		l0,0C127.1,40.4,126.2,37.7,127.4,35.4z"/>
</g>
</svg>
